{
  "accessors": [
    {
      "bufferView": 2,
      "componentType": 5126,
      "count": 208,
      "max": [
        -1.2633328437805176,
        1.1634714603424072,
        0.6427221894264221
      ],
      "min": [
        -2.691157817840576,
        0.2234542965888977,
        0.10807254910469055
      ],
      "type": "VEC3"
    },
    {
      "bufferView": 2,
      "byteOffset": 2496,
      "componentType": 5126,
      "count": 208,
      "max": [
        1.0,
        1.0,
        1.0
      ],
      "min": [
        -1.0,
        -1.0,
        -1.0
      ],
      "type": "VEC3"
    },
    {
      "bufferView": 1,
      "componentType": 5126,
      "count": 208,
      "max": [
        0.875,
        1.0
      ],
      "min": [
        0.125,
        0.0
      ],
      "type": "VEC2"
    },
    {
      "bufferView": 0,
      "componentType": 5125,
      "count": 480,
      "type": "SCALAR"
    },
    {
      "bufferView": 2,
      "byteOffset": 4992,
      "componentType": 5126,
      "count": 6,
      "max": [
        -1.2750885486602783,
        1.1517157554626465,
        0.4825000762939453
      ],
      "min": [
        -2.6794021129608154,
        0.4432567059993744,
        0.4824995994567871
      ],
      "type": "VEC3"
    },
    {
      "bufferView": 2,
      "byteOffset": 5064,
      "componentType": 5126,
      "count": 6,
      "max": [
        -1.6977588757072226e-07,
        0.0,
        1.0
      ],
      "min": [
        -2.1116279924626724e-07,
        0.0,
        1.0
      ],
      "type": "VEC3"
    },
    {
      "bufferView": 1,
      "byteOffset": 1664,
      "componentType": 5126,
      "count": 6,
      "max": [
        0.6184741258621216,
        0.7479417324066162
      ],
      "min": [
        0.3779377043247223,
        0.5020582675933838
      ],
      "type": "VEC2"
    },
    {
      "bufferView": 0,
      "byteOffset": 1920,
      "componentType": 5125,
      "count": 12,
      "type": "SCALAR"
    },
    {
      "bufferView": 2,
      "byteOffset": 5136,
      "componentType": 5126,
      "count": 12,
      "max": [
        -1.2633328437805176,
        1.1634714603424072,
        0.4825000762939453
      ],
      "min": [
        -2.691157817840576,
        0.403325617313385,
        0.4824995994567871
      ],
      "type": "VEC3"
    },
    {
      "bufferView": 2,
      "byteOffset": 5280,
      "componentType": 5126,
      "count": 12,
      "max": [
        0.0,
        0.0,
        1.0
      ],
      "min": [
        -2.753562284851796e-07,
        0.0,
        1.0
      ],
      "type": "VEC3"
    },
    {
      "bufferView": 1,
      "byteOffset": 1712,
      "componentType": 5126,
      "count": 12,
      "max": [
        0.625,
        0.75
      ],
      "min": [
        0.375,
        0.5
      ],
      "type": "VEC2"
    },
    {
      "bufferView": 0,
      "byteOffset": 1968,
      "componentType": 5125,
      "count": 36,
      "type": "SCALAR"
    },
    {
      "bufferView": 2,
      "byteOffset": 5424,
      "componentType": 5126,
      "count": 9548,
      "max": [
        2.3026621341705322,
        0.2433135211467743,
        1.1484100818634033
      ],
      "min": [
        1.5597503185272217,
        0.2234528660774231,
        0.8695999979972839
      ],
      "type": "VEC3"
    },
    {
      "bufferView": 2,
      "byteOffset": 120000,
      "componentType": 5126,
      "count": 9548,
      "max": [
        1.0,
        1.0,
        1.0
      ],
      "min": [
        -1.0,
        -1.0,
        -1.0
      ],
      "type": "VEC3"
    },
    {
      "bufferView": 1,
      "byteOffset": 1808,
      "componentType": 5126,
      "count": 9548,
      "max": [
        0.875,
        1.25
      ],
      "min": [
        -0.5,
        0.0
      ],
      "type": "VEC2"
    },
    {
      "bufferView": 0,
      "byteOffset": 2112,
      "componentType": 5125,
      "count": 15909,
      "type": "SCALAR"
    },
    {
      "bufferView": 2,
      "byteOffset": 234576,
      "componentType": 5126,
      "count": 1282,
      "max": [
        2.2921390533447266,
        0.2433135211467743,
        1.137670874595642
      ],
      "min": [
        1.5705573558807373,
        0.2433122843503952,
        0.8806235194206238
      ],
      "type": "VEC3"
    },
    {
      "bufferView": 2,
      "byteOffset": 249960,
      "componentType": 5126,
      "count": 1282,
      "max": [
        4.023264636998647e-07,
        1.0,
        2.793308119530824e-13
      ],
      "min": [
        -3.764550058349414e-07,
        1.0,
        -0.0
      ],
      "type": "VEC3"
    },
    {
      "bufferView": 1,
      "byteOffset": 78192,
      "componentType": 5126,
      "count": 1282,
      "max": [
        0.7912228107452393,
        0.9865174293518066
      ],
      "min": [
        0.017828773707151413,
        0.33879148960113525
      ],
      "type": "VEC2"
    },
    {
      "bufferView": 0,
      "byteOffset": 65748,
      "componentType": 5125,
      "count": 3390,
      "type": "SCALAR"
    },
    {
      "bufferView": 2,
      "byteOffset": 265344,
      "componentType": 5126,
      "count": 525,
      "max": [
        2.6540682315826416,
        0.25580450892448425,
        1.1757980585098267
      ],
      "min": [
        2.55635142326355,
        0.22273071110248566,
        1.0074833631515503
      ],
      "type": "VEC3"
    },
    {
      "bufferView": 2,
      "byteOffset": 271644,
      "componentType": 5126,
      "count": 525,
      "max": [
        1.0,
        0.999642014503479,
        0.9935241341590881
      ],
      "min": [
        -1.0,
        -1.0,
        -0.9963235855102539
      ],
      "type": "VEC3"
    },
    {
      "bufferView": 1,
      "byteOffset": 88448,
      "componentType": 5126,
      "count": 525,
      "max": [
        0.875,
        1.0
      ],
      "min": [
        0.125,
        0.0
      ],
      "type": "VEC2"
    },
    {
      "bufferView": 0,
      "byteOffset": 79308,
      "componentType": 5125,
      "count": 1479,
      "type": "SCALAR"
    },
    {
      "bufferView": 2,
      "byteOffset": 277944,
      "componentType": 5126,
      "count": 243,
      "max": [
        2.652308702468872,
        0.25580450892448425,
        1.0959031581878662
      ],
      "min": [
        2.5581107139587402,
        0.23530453443527222,
        1.0096949338912964
      ],
      "type": "VEC3"
    },
    {
      "bufferView": 2,
      "byteOffset": 280860,
      "componentType": 5126,
      "count": 243,
      "max": [
        0.9953198432922363,
        0.999642014503479,
        0.7913310527801514
      ],
      "min": [
        -0.9953210353851318,
        0.09661201387643814,
        -0.9336518049240112
      ],
      "type": "VEC3"
    },
    {
      "bufferView": 1,
      "byteOffset": 92648,
      "componentType": 5126,
      "count": 243,
      "max": [
        0.875,
        0.75
      ],
      "min": [
        0.25306129455566406,
        0.24999994039535522
      ],
      "type": "VEC2"
    },
    {
      "bufferView": 0,
      "byteOffset": 85224,
      "componentType": 5125,
      "count": 798,
      "type": "SCALAR"
    }
  ],
  "asset": {
    "extras": {
      "author": "FatWasHere (https://sketchfab.com/fathin880)",
      "license": "CC-BY-4.0 (http://creativecommons.org/licenses/by/4.0/)",
      "source": "https://sketchfab.com/3d-models/personal-computer-b3b07b985d2e4aefb6f7e6dc3fe51378",
      "title": "Personal Computer"
    },
    "generator": "Sketchfab-16.54.0",
    "version": "2.0"
  },
  "bufferViews": [
    {
      "buffer": 0,
      "byteLength": 88416,
      "name": "floatBufferViews",
      "target": 34963
    },
    {
      "buffer": 0,
      "byteLength": 94592,
      "byteOffset": 88416,
      "byteStride": 8,
      "name": "floatBufferViews",
      "target": 34962
    },
    {
      "buffer": 0,
      "byteLength": 283776,
      "byteOffset": 183008,
      "byteStride": 12,
      "name": "floatBufferViews",
      "target": 34962
    }
  ],
  "buffers": [
    {
      "byteLength": 466784,
      "uri": "scene.bin"
    }
  ],
  "extensionsUsed": [
    "KHR_materials_emissive_strength",
    "KHR_materials_specular"
  ],
  "materials": [
    {
      "doubleSided": true,
      "name": "Black_plastic_PL.004"
    },
    {
      "doubleSided": true,
      "emissiveFactor": [
        0.749943,
        1.0,
        1.0
      ],
      "extensions": {
        "KHR_materials_emissive_strength": {
          "emissiveStrength": 2.28302
        },
        "KHR_materials_specular": {
          "specularColorFactor": [
            1.0,
            1.0,
            1.0
          ],
          "specularFactor": 1.0
        }
      },
      "name": "cream.002",
      "pbrMetallicRoughness": {
        "baseColorFactor": [
          1.0,
          0.982251,
          0.630757,
          1.0
        ],
        "metallicFactor": 0.289062,
        "roughnessFactor": 0.21875
      }
    },
    {
      "doubleSided": true,
      "extensions": {
        "KHR_materials_specular": {
          "specularColorFactor": [
            1.0,
            1.0,
            1.0
          ],
          "specularFactor": 1.0
        }
      },
      "name": "black",
      "pbrMetallicRoughness": {
        "baseColorFactor": [
          0.0310436,
          0.0310436,
          0.0310436,
          1.0
        ],
        "metallicFactor": 0.0390625,
        "roughnessFactor": 0.698165
      }
    },
    {
      "doubleSided": true,
      "extensions": {
        "KHR_materials_specular": {
          "specularColorFactor": [
            1.0,
            1.0,
            1.0
          ],
          "specularFactor": 1.0
        }
      },
      "name": "case_metal.001"
    }
  ],
  "meshes": [
    {
      "name": "Object_0",
      "primitives": [
        {
          "attributes": {
            "NORMAL": 1,
            "POSITION": 0,
            "TEXCOORD_0": 2
          },
          "indices": 3,
          "material": 0,
          "mode": 4
        }
      ]
    },
    {
      "name": "Object_1",
      "primitives": [
        {
          "attributes": {
            "NORMAL": 5,
            "POSITION": 4,
            "TEXCOORD_0": 6
          },
          "indices": 7,
          "material": 1,
          "mode": 4
        }
      ]
    },
    {
      "name": "Object_2",
      "primitives": [
        {
          "attributes": {
            "NORMAL": 9,
            "POSITION": 8,
            "TEXCOORD_0": 10
          },
          "indices": 11,
          "material": 2,
          "mode": 4
        }
      ]
    },
    {
      "name": "Object_3",
      "primitives": [
        {
          "attributes": {
            "NORMAL": 13,
            "POSITION": 12,
            "TEXCOORD_0": 14
          },
          "indices": 15,
          "material": 3,
          "mode": 4
        }
      ]
    },
    {
      "name": "Object_4",
      "primitives": [
        {
          "attributes": {
            "NORMAL": 17,
            "POSITION": 16,
            "TEXCOORD_0": 18
          },
          "indices": 19,
          "material": 2,
          "mode": 4
        }
      ]
    },
    {
      "name": "Object_5",
      "primitives": [
        {
          "attributes": {
            "NORMAL": 21,
            "POSITION": 20,
            "TEXCOORD_0": 22
          },
          "indices": 23,
          "material": 3,
          "mode": 4
        }
      ]
    },
    {
      "name": "Object_6",
      "primitives": [
        {
          "attributes": {
            "NORMAL": 25,
            "POSITION": 24,
            "TEXCOORD_0": 26
          },
          "indices": 27,
          "material": 2,
          "mode": 4
        }
      ]
    }
  ],
  "nodes": [
    {
      "children": [
        1
      ],
      "matrix": [
        1.0,
        0.0,
        0.0,
        0.0,
        0.0,
        2.220446049250313e-16,
        -1.0,
        0.0,
        0.0,
        1.0,
        2.220446049250313e-16,
        0.0,
        0.0,
        0.0,
        0.0,
        1.0
      ],
      "name": "Sketchfab_model"
    },
    {
      "children": [
        2
      ],
      "name": "root"
    },
    {
      "children": [
        3,
        7,
        10
      ],
      "matrix": [
        1.0,
        0.0,
        0.0,
        0.0,
        0.0,
        2.220446049250313e-16,
        1.0,
        0.0,
        0.0,
        -1.0,
        2.220446049250313e-16,
        0.0,
        0.0,
        0.0,
        0.0,
        1.0
      ],
      "name": "GLTF_SceneRootNode"
    },
    {
      "children": [
        4,
        5,
        6
      ],
      "matrix": [
        -0.9999999999987113,
        0.0,
        1.6053570561770017e-06,
        0.0,
        0.0,
        1.0,
        0.0,
        0.0,
        -1.6053570561770017e-06,
        0.0,
        -0.9999999999987113,
        0.0,
        2.8980653285980225,
        21.94992446899414,
        -3.823354482650757,
        1.0
      ],
      "name": "Cube.049_0"
    },
    {
      "mesh": 0,
      "name": "Object_4"
    },
    {
      "mesh": 1,
      "name": "Object_5"
    },
    {
      "mesh": 2,
      "name": "Object_6"
    },
    {
      "children": [
        8,
        9
      ],
      "matrix": [
        -0.9999999999987113,
        0.0,
        1.6053570561770017e-06,
        0.0,
        0.0,
        1.0,
        0.0,
        0.0,
        -1.6053570561770017e-06,
        0.0,
        -0.9999999999987113,
        0.0,
        6.781229019165039,
        21.94992446899414,
        -3.823354482650757,
        1.0
      ],
      "name": "Cube.048_1"
    },
    {
      "mesh": 3,
      "name": "Object_8"
    },
    {
      "mesh": 4,
      "name": "Object_9"
    },
    {
      "children": [
        11,
        12
      ],
      "matrix": [
        -0.9999999999987113,
        0.0,
        1.6053570561770017e-06,
        0.0,
        0.0,
        1.0,
        0.0,
        0.0,
        -1.6053570561770017e-06,
        0.0,
        -0.9999999999987113,
        0.0,
        6.781229019165039,
        21.94992446899414,
        -3.823354482650757,
        1.0
      ],
      "name": "Cube.050_2"
    },
    {
      "mesh": 5,
      "name": "Object_11"
    },
    {
      "mesh": 6,
      "name": "Object_12"
    }
  ],
  "scene": 0,
  "scenes": [
    {
      "name": "Sketchfab_Scene",
      "nodes": [
        0
      ]
    }
  ]
}
